<svg width="360" height="138" viewBox="0 0 360 138" fill="none" xmlns="http://www.w3.org/2000/svg">
<g filter="url(#filter0_d)">
<path d="M148.612 29.8828C141.989 21.1745 138.569 16.7392 139.351 12.3034C140.006 8.58687 143.391 6.21691 147.107 6.87223C149.145 7.2316 151.014 8.55007 152.058 10.3411C153.652 9.01514 155.859 8.41541 157.897 8.77478C161.614 9.4301 163.984 12.8148 163.328 16.5313C162.525 21.087 157.793 24.0848 148.612 29.8828ZM146.582 30.8845C139.916 22.4159 135.981 17.3954 136.974 11.7607C137.016 11.5209 137.059 11.2812 137.101 11.0414C136.191 11.9935 135.479 13.2277 135.226 14.6664C134.422 19.2221 137.843 23.6574 144.509 32.126L146.582 30.8845Z" fill="#FFFFB1"/>
</g>
<g filter="url(#filter1_d)">
<path d="M134.785 89.5706C126.134 82.8732 121.681 79.4744 121.289 74.9873C120.96 71.2278 123.616 68.0626 127.375 67.7337C129.437 67.5533 131.583 68.3431 133.055 69.803C134.251 68.1097 136.228 66.9591 138.29 66.7788C142.049 66.4499 145.215 69.1058 145.544 72.8653C145.947 77.4737 142.152 81.5939 134.785 89.5706ZM133.082 91.0638C124.452 84.6089 119.351 80.7781 118.853 75.0782C118.831 74.8357 118.81 74.5931 118.789 74.3506C118.157 75.5057 117.788 76.8822 117.916 78.3375C118.319 82.9459 122.771 86.3446 131.401 92.7995L133.082 91.0638Z" fill="#B1B1FF"/>
</g>
<g clip-path="url(#clip0)" filter="url(#filter2_d)">
<path d="M310.853 80.5918L308.78 81.8332C302.114 73.3646 298.694 68.9294 299.497 64.3737C299.751 62.935 300.463 61.7008 301.372 60.7486C301.33 60.9884 301.288 61.2282 301.245 61.468C300.252 67.1027 304.188 72.1232 310.853 80.5918ZM313.638 76.0146C320.182 71.853 324.61 69.1726 325.343 65.717C325.766 63.3192 324.284 61.2038 321.887 60.781C319.968 60.4428 317.959 61.3246 317.063 62.8973L314.785 62.4957C314.362 60.6904 312.775 59.1744 310.977 58.8574C308.579 58.4346 306.464 59.9158 306.041 62.3135C305.428 65.7903 308.552 69.8025 313.398 75.9723L313.497 76.1134L313.638 76.0146ZM322.19 58.3622C325.906 59.0175 328.276 62.4021 327.621 66.1186C326.839 70.5545 322.107 73.5523 312.926 79.3503C306.261 70.8817 302.84 66.4465 303.643 61.8908C304.298 58.1742 307.683 55.8043 311.4 56.4596C313.438 56.819 315.307 58.1374 316.351 59.9285C317.944 58.6025 320.151 58.0028 322.19 58.3622Z" fill="#FFFFB1"/>
</g>
<g clip-path="url(#clip1)" filter="url(#filter3_d)">
<path d="M102.73 76.1423C99.7326 76.6707 97.2159 78.9893 96.5115 81.7713L100.225 102.832C107.354 93.6014 111.908 87.2975 110.956 81.9026C110.252 77.9063 106.726 75.4376 102.73 76.1423ZM102.025 72.146C108.179 71.0608 113.864 75.0237 114.953 81.1979C116.281 88.7309 110.576 96.103 101.931 107.249L99.4987 110.397L96.1364 108.27C84.2007 100.754 76.3183 95.7773 74.9901 88.2444C73.9014 82.0702 77.8878 76.4021 84.042 75.3169C87.5188 74.7039 91.141 75.734 93.7664 77.8876C95.4969 74.9659 98.5484 72.759 102.025 72.146Z" fill="#B1FFB1"/>
</g>
<g filter="url(#filter4_d)">
<path d="M269.467 88.3533C260.816 81.6558 256.364 78.2571 255.971 73.7699C255.642 70.0105 258.298 66.8452 262.058 66.5163C264.119 66.336 266.266 67.1258 267.738 68.5856C268.934 66.8924 270.911 65.7418 272.972 65.5614C276.732 65.2325 279.897 67.8884 280.226 71.6479C280.629 76.2563 276.835 80.3766 269.467 88.3533ZM267.765 89.8464C259.135 83.3915 254.034 79.5607 253.535 73.8609C253.514 73.6183 253.493 73.3758 253.471 73.1332C252.839 74.2884 252.471 75.6648 252.598 77.1201C253.001 81.7285 257.454 85.1272 266.084 91.5821L267.765 89.8464Z" fill="#B1FFB1"/>
</g>
<g clip-path="url(#clip2)" filter="url(#filter5_d)">
<path d="M52.5644 90.3307L50.4912 91.5722C43.8259 83.1036 40.405 78.6684 41.2083 74.1126C41.462 72.674 42.1741 71.4398 43.0837 70.4876C43.0414 70.7274 42.9991 70.9672 42.9568 71.2069C41.9633 76.8417 45.899 81.8622 52.5644 90.3307ZM55.3493 85.7536C61.893 81.592 66.3213 78.9116 67.0542 75.456C67.477 73.0582 65.9958 70.9428 63.598 70.52C61.6798 70.1818 59.6701 71.0636 58.7747 72.6363L56.4969 72.2346C56.0735 70.4294 54.4866 68.9134 52.6883 68.5963C50.2905 68.1735 48.1751 69.6548 47.7523 72.0525C47.1393 75.5293 50.2639 79.5414 55.1095 85.7113L55.2083 85.8523L55.3493 85.7536ZM63.9009 68.1011C67.6175 68.7564 69.9874 72.1411 69.3321 75.8576C68.5499 80.2935 63.8184 83.2912 54.6375 89.0893C47.9721 80.6207 44.5513 76.1855 45.3546 71.6297C46.0099 67.9132 49.3945 65.5432 53.1111 66.1986C55.1492 66.5579 57.0181 67.8764 58.0621 69.6675C59.6557 68.3415 61.8629 67.7417 63.9009 68.1011Z" fill="#FFFFB1"/>
</g>
<g filter="url(#filter6_d)">
<path d="M331.213 26.9662C328.216 26.4377 325.058 27.7557 323.444 30.129L319.731 51.1892C329.586 44.9539 336.022 40.5877 336.973 35.1928C337.678 31.1965 335.209 27.6709 331.213 26.9662ZM331.918 22.97C338.072 24.0551 342.058 29.7232 340.969 35.8974C339.641 43.4304 331.759 48.4067 319.823 55.9235L316.461 58.0502L314.029 54.9018C305.384 43.756 299.679 36.3839 301.007 28.851C302.096 22.6768 307.78 18.7139 313.934 19.799C317.411 20.4121 320.463 22.619 322.193 25.5406C324.819 23.387 328.441 22.3569 331.918 22.97Z" fill="#B1B1FF"/>
</g>
<g filter="url(#filter7_d)">
<path d="M307.013 79.5413C303.97 79.5413 301.088 81.3877 299.912 84.005V105.39C308.535 97.5381 314.114 92.1208 314.114 86.6427C314.114 82.5848 311.071 79.5413 307.013 79.5413ZM307.013 75.4834C313.262 75.4834 318.172 80.3732 318.172 86.6427C318.172 94.2918 311.274 100.561 300.825 110.036L297.883 112.715L294.941 110.036C284.492 100.561 277.593 94.2918 277.593 86.6427C277.593 80.3732 282.503 75.4834 288.752 75.4834C292.283 75.4834 295.671 77.1269 297.883 79.7036C300.094 77.1269 303.483 75.4834 307.013 75.4834Z" fill="#FFFFB1"/>
</g>
<g clip-path="url(#clip3)" filter="url(#filter8_d)">
<path d="M185.073 50.4457L183.247 52.0283C175.212 44.8458 171.073 41.072 171.073 36.446C171.073 34.9851 171.56 33.646 172.29 32.5504C172.29 32.7939 172.29 33.0373 172.29 33.2808C172.29 39.0025 177.038 43.2633 185.073 50.4457ZM187.02 45.4545C192.742 40.2198 196.638 36.8112 196.759 33.2808C196.759 30.8461 194.933 29.02 192.499 29.02C190.551 29.02 188.725 30.2374 188.116 31.9417H185.803C185.073 30.2374 183.247 29.02 181.42 29.02C178.986 29.02 177.16 30.8461 177.16 33.2808C177.16 36.8112 180.934 40.2198 186.777 45.4545L186.899 45.5763L187.02 45.4545ZM192.377 26.5853C196.151 26.5853 199.072 29.507 199.072 33.2808C199.072 37.7851 194.933 41.5589 186.899 48.8632C178.864 41.6807 174.725 37.9068 174.725 33.2808C174.725 29.507 177.647 26.5853 181.42 26.5853C183.49 26.5853 185.56 27.5592 186.899 29.1417C188.238 27.5592 190.307 26.5853 192.377 26.5853Z" fill="#B1FFB1"/>
</g>
<g filter="url(#filter9_d)">
<path d="M168.539 84.8606C161.916 76.1522 158.495 71.717 159.278 67.2811C159.933 63.5646 163.318 61.1947 167.034 61.85C169.072 62.2094 170.941 63.5278 171.985 65.3189C173.579 63.9929 175.786 63.3932 177.824 63.7525C181.54 64.4079 183.91 67.7925 183.255 71.509C182.452 76.0648 177.72 79.0625 168.539 84.8606ZM166.509 85.8623C159.843 77.3937 155.907 72.3732 156.901 66.7385C156.943 66.4987 156.986 66.2589 157.028 66.0191C156.118 66.9713 155.406 68.2055 155.152 69.6441C154.349 74.1999 157.77 78.6351 164.435 87.1037L166.509 85.8623Z" fill="#FFFFB1"/>
</g>
<g filter="url(#filter10_d)">
<path d="M85.8841 43.1046C77.2328 36.4072 72.7806 33.0084 72.388 28.5213C72.0591 24.7618 74.7151 21.5966 78.4746 21.2677C80.5362 21.0873 82.6827 21.8771 84.1547 23.337C85.3508 21.6437 87.3275 20.4931 89.3892 20.3128C93.1487 19.9839 96.3139 22.6398 96.6428 26.3993C97.046 31.0077 93.2516 35.1279 85.8841 43.1046ZM84.1817 44.5978C75.5517 38.1429 70.4506 34.3121 69.952 28.6122C69.9307 28.3697 69.9095 28.1271 69.8883 27.8846C69.2561 29.0397 68.8878 30.4162 69.0151 31.8715C69.4183 36.4799 73.8705 39.8786 82.5006 46.3335L84.1817 44.5978Z" fill="#B1FFB1"/>
</g>
<g clip-path="url(#clip4)" filter="url(#filter11_d)">
<path d="M275.343 49.9516L273.27 51.193C266.605 42.7245 263.184 38.2892 263.987 33.7335C264.241 32.2948 264.953 31.0606 265.863 30.1085C265.82 30.3482 265.778 30.588 265.736 30.8278C264.742 36.4625 268.678 41.483 275.343 49.9516ZM278.128 45.3744C284.672 41.2128 289.1 38.5324 289.833 35.0768C290.256 32.6791 288.775 30.5637 286.377 30.1409C284.459 29.8026 282.449 30.6844 281.554 32.2572L279.276 31.8555C278.852 30.0502 277.266 28.5343 275.467 28.2172C273.069 27.7944 270.954 29.2756 270.531 31.6734C269.918 35.1501 273.043 39.1623 277.888 45.3322L277.987 45.4732L278.128 45.3744ZM286.68 27.722C290.396 28.3773 292.766 31.762 292.111 35.4785C291.329 39.9143 286.597 42.9121 277.416 48.7102C270.751 40.2416 267.33 35.8063 268.134 31.2506C268.789 27.5341 272.173 25.1641 275.89 25.8194C277.928 26.1788 279.797 27.4973 280.841 29.2883C282.435 27.9623 284.642 27.3626 286.68 27.722Z" fill="#B1FFB1"/>
</g>
<g clip-path="url(#clip5)" filter="url(#filter12_d)">
<path d="M53.8291 12.6331C50.8319 13.1616 48.3152 15.4802 47.6108 18.2621L51.3243 39.3224C58.4528 30.0922 63.0069 23.7883 62.0557 18.3934C61.351 14.3971 57.8254 11.9284 53.8291 12.6331ZM53.1244 8.63682C59.2787 7.55166 64.9632 11.5145 66.0519 17.6887C67.3802 25.2217 61.6752 32.5938 53.0302 43.7395L50.598 46.8879L47.2357 44.7613C35.3 37.2445 27.4176 32.2682 26.0894 24.7352C25.0007 18.561 28.9871 12.8929 35.1413 11.8077C38.618 11.1947 42.2403 12.2248 44.8657 14.3784C46.5962 11.4567 49.6477 9.24986 53.1244 8.63682Z" fill="#FFFFB1"/>
</g>
<g filter="url(#filter13_d)">
<path d="M234.968 15.6646C231.936 15.3993 228.905 16.9875 227.505 19.4923L225.641 40.7961C234.915 33.7255 240.946 28.8151 241.423 23.3578C241.777 19.3153 239.01 16.0182 234.968 15.6646ZM235.322 11.6221C241.547 12.1667 246.012 17.4658 245.466 23.7115C244.799 31.3315 237.381 36.9759 226.145 45.5043L222.981 47.9159L220.284 44.9915C210.7 34.6416 204.375 27.7948 205.041 20.1748C205.588 13.9292 210.905 9.48592 217.131 10.0306C220.648 10.3383 223.88 12.2708 225.858 15.0305C228.286 12.6563 231.805 11.3144 235.322 11.6221Z" fill="#B1B1FF"/>
</g>
<g clip-path="url(#clip6)" filter="url(#filter14_d)">
<path d="M116.694 34.414L114.868 35.9966C106.833 28.8141 102.694 25.0402 102.694 20.4142C102.694 18.9534 103.181 17.6143 103.912 16.5186C103.912 16.7621 103.912 17.0056 103.912 17.2491C103.912 22.9707 108.659 27.2315 116.694 34.414ZM118.642 29.4228C124.363 24.1881 128.259 20.7794 128.381 17.2491C128.381 14.8143 126.555 12.9883 124.12 12.9883C122.172 12.9883 120.346 14.2056 119.737 15.91H117.424C116.694 14.2056 114.868 12.9883 113.042 12.9883C110.607 12.9883 108.781 14.8143 108.781 17.2491C108.781 20.7794 112.555 24.1881 118.398 29.4228L118.52 29.5445L118.642 29.4228ZM123.998 10.5535C127.772 10.5535 130.694 13.4752 130.694 17.2491C130.694 21.7533 126.555 25.5272 118.52 32.8314C110.485 25.6489 106.346 21.8751 106.346 17.2491C106.346 13.4752 109.268 10.5535 113.042 10.5535C115.111 10.5535 117.181 11.5274 118.52 13.11C119.859 11.5274 121.929 10.5535 123.998 10.5535Z" fill="#B1B1FF"/>
</g>
<g filter="url(#filter15_d)">
<path d="M217.226 72.009C214.229 71.4805 211.071 72.7985 209.457 75.1717L205.744 96.232C215.599 89.9966 222.035 85.6305 222.986 80.2355C223.691 76.2393 221.222 72.7136 217.226 72.009ZM217.93 68.0127C224.085 69.0979 228.071 74.766 226.982 80.9402C225.654 88.4731 217.772 93.4494 205.836 100.966L202.474 103.093L200.041 99.9445C191.396 88.7988 185.691 81.4267 187.02 73.8937C188.108 67.7195 193.793 63.7566 199.947 64.8418C203.424 65.4548 206.475 67.6617 208.206 70.5834C210.831 68.4298 214.454 67.3997 217.93 68.0127Z" fill="#B1FFB1"/>
</g>
<g clip-path="url(#clip7)" filter="url(#filter16_d)">
<path d="M319.623 22.5779C316.625 23.1064 314.109 25.425 313.404 28.2069L317.118 49.2672C324.246 40.0371 328.8 33.7332 327.849 28.3382C327.145 24.342 323.619 21.8733 319.623 22.5779ZM318.918 18.5817C325.072 17.4965 330.757 21.4594 331.845 27.6336C333.174 35.1665 327.469 42.5387 318.824 53.6844L316.392 56.8328L313.029 54.7061C301.093 47.1893 293.211 42.213 291.883 34.6801C290.794 28.5059 294.781 22.8377 300.935 21.7526C304.412 21.1395 308.034 22.1696 310.659 24.3232C312.39 21.4016 315.441 19.1947 318.918 18.5817Z" fill="#FFFFB1"/>
</g>
<g filter="url(#filter17_d)">
<path d="M146.1 25.6094C143.068 25.3442 140.037 26.9324 138.637 29.4372L136.773 50.741C146.047 43.6704 152.078 38.76 152.555 33.3027C152.909 29.2602 150.142 25.9631 146.1 25.6094ZM146.454 21.567C152.679 22.1116 157.144 27.4107 156.598 33.6563C155.931 41.2764 148.512 46.9207 137.277 55.4492L134.113 57.8608L131.416 54.9364C121.832 44.5865 115.506 37.7397 116.173 30.1196C116.72 23.874 122.037 19.4308 128.262 19.9754C131.779 20.2831 135.012 22.2156 136.99 24.9754C139.418 22.6011 142.937 21.2593 146.454 21.567Z" fill="#B1FFB1"/>
</g>
<g clip-path="url(#clip8)" filter="url(#filter18_d)">
<path d="M243.707 44.3589L241.881 45.9415C233.846 38.759 229.707 34.9851 229.707 30.3591C229.707 28.8983 230.194 27.5592 230.925 26.4635C230.925 26.707 230.925 26.9505 230.925 27.1939C230.925 32.9156 235.672 37.1764 243.707 44.3589ZM245.655 39.3677C251.377 34.133 255.272 30.7243 255.394 27.1939C255.394 24.7592 253.568 22.9331 251.133 22.9331C249.185 22.9331 247.359 24.1505 246.751 25.8548H244.438C243.707 24.1505 241.881 22.9331 240.055 22.9331C237.62 22.9331 235.794 24.7592 235.794 27.1939C235.794 30.7243 239.568 34.133 245.411 39.3677L245.533 39.4894L245.655 39.3677ZM251.011 20.4984C254.785 20.4984 257.707 23.4201 257.707 27.1939C257.707 31.6982 253.568 35.4721 245.533 42.7763C237.499 35.5938 233.359 31.82 233.359 27.1939C233.359 23.4201 236.281 20.4984 240.055 20.4984C242.125 20.4984 244.194 21.4723 245.533 23.0549C246.872 21.4723 248.942 20.4984 251.011 20.4984Z" fill="#FFFFB1"/>
</g>
<g filter="url(#filter19_d)">
<path d="M166.091 81.9538C163.094 81.4253 159.936 82.7433 158.322 85.1166L154.609 106.177C164.464 99.9415 170.9 95.5754 171.851 90.1804C172.556 86.1842 170.087 82.6585 166.091 81.9538ZM166.796 77.9576C172.95 79.0427 176.936 84.7108 175.848 90.8851C174.519 98.418 166.637 103.394 154.701 110.911L151.339 113.038L148.907 109.889C140.262 98.7436 134.557 91.3715 135.885 83.8386C136.974 77.6644 142.658 73.7015 148.813 74.7867C152.289 75.3997 155.341 77.6066 157.071 80.5282C159.697 78.3746 163.319 77.3445 166.796 77.9576Z" fill="#B1B1FF"/>
</g>
<g clip-path="url(#clip9)" filter="url(#filter20_d)">
<path d="M241.832 84.2843L240.15 86.02C231.52 79.5651 227.068 76.1664 226.665 71.558C226.538 70.1027 226.906 68.7262 227.538 67.5711C227.559 67.8137 227.581 68.0562 227.602 68.2988C228.1 73.9986 233.201 77.8294 241.832 84.2843ZM243.337 79.1423C248.581 73.4289 252.164 69.6937 251.978 66.1661C251.766 63.7407 249.787 62.0807 247.362 62.2929C245.422 62.4627 243.708 63.8346 243.251 65.5854L240.946 65.787C240.07 64.1529 238.145 63.0993 236.326 63.2584C233.9 63.4706 232.241 65.4489 232.453 67.8744C232.76 71.3913 236.817 74.4581 243.094 79.1635L243.226 79.2742L243.337 79.1423ZM247.028 59.878C250.788 59.5491 253.953 62.2051 254.282 65.9645C254.675 70.4517 250.88 74.5719 243.513 82.5486C234.883 76.0937 230.43 72.695 230.027 68.0866C229.698 64.3271 232.354 61.1619 236.114 60.8329C238.175 60.6526 240.322 61.4424 241.794 62.9022C242.99 61.209 244.967 60.0584 247.028 59.878Z" fill="#B1B1FF"/>
</g>
<g clip-path="url(#clip10)" filter="url(#filter21_d)">
<path d="M209.182 37.1864C212.179 37.7149 214.696 40.0335 215.401 42.8154L211.687 63.8757C204.559 54.6455 200.004 48.3416 200.956 42.9467C201.66 38.9504 205.186 36.4817 209.182 37.1864ZM209.887 33.1901C203.733 32.105 198.048 36.0678 196.959 42.242C195.631 49.775 201.336 57.1471 209.981 68.2928L212.413 71.4412L215.776 69.3146C227.711 61.7978 235.594 56.8215 236.922 49.2885C238.011 43.1143 234.024 37.4462 227.87 36.361C224.393 35.748 220.771 36.7781 218.146 38.9317C216.415 36.01 213.364 33.8032 209.887 33.1901Z" fill="#FFFFB1"/>
</g>
<g filter="url(#filter22_d)">
<path d="M28.0434 40.2179C31.0753 39.9526 34.1063 41.5408 35.5068 44.0457L37.3706 65.3494C28.096 58.2788 22.0655 53.3684 21.588 47.9111C21.2344 43.8686 24.0009 40.5715 28.0434 40.2179ZM27.6897 36.1754C21.4643 36.7201 16.9991 42.0192 17.5456 48.2648C18.2122 55.8848 25.6308 61.5292 36.866 70.0576L40.0302 72.4692L42.7276 69.5448C52.3111 59.195 58.6369 52.3481 57.9702 44.7281C57.4238 38.4825 52.1062 34.0393 45.8808 34.5839C42.3639 34.8916 39.1317 36.8241 37.1531 39.5838C34.7254 37.2096 31.2067 35.8677 27.6897 36.1754Z" fill="#B1B1FF"/>
</g>
<g clip-path="url(#clip11)" filter="url(#filter23_d)">
<path d="M146.317 58.9673L148.144 60.5499C156.178 53.3674 160.317 49.5936 160.317 44.9676C160.317 43.5067 159.83 42.1676 159.1 41.072C159.1 41.3155 159.1 41.5589 159.1 41.8024C159.1 47.524 154.352 51.7848 146.317 58.9673ZM144.37 53.9761C138.648 48.7414 134.752 45.3328 134.631 41.8024C134.631 39.3677 136.457 37.5416 138.891 37.5416C140.839 37.5416 142.665 38.759 143.274 40.4633H145.587C146.317 38.759 148.144 37.5416 149.97 37.5416C152.404 37.5416 154.23 39.3677 154.23 41.8024C154.23 45.3328 150.457 48.7414 144.613 53.9761L144.491 54.0978L144.37 53.9761ZM139.013 35.1069C135.239 35.1069 132.318 38.0285 132.318 41.8024C132.318 46.3067 136.457 50.0805 144.491 57.3848C152.526 50.2023 156.665 46.4284 156.665 41.8024C156.665 38.0285 153.743 35.1069 149.97 35.1069C147.9 35.1069 145.831 36.0808 144.491 37.6633C143.152 36.0808 141.083 35.1069 139.013 35.1069Z" fill="#B1B1FF"/>
</g>
<g clip-path="url(#clip12)" filter="url(#filter24_d)">
<path d="M79.5418 68.2121L78.0183 70.0878C68.8585 64.4096 64.127 61.4118 63.3237 56.8561C63.07 55.4175 63.317 54.0141 63.8461 52.8083C63.8884 53.0481 63.9306 53.2879 63.9729 53.5276C64.9665 59.1623 70.382 62.534 79.5418 68.2121ZM80.5933 62.9585C85.319 56.8098 88.5635 52.7765 88.0703 49.2786C87.6476 46.8809 85.5322 45.3996 83.1344 45.8224C81.2162 46.1606 79.6293 47.6766 79.3258 49.4607L77.0479 49.8624C76.0326 48.3108 74.0229 47.429 72.2246 47.7461C69.8269 48.1689 68.3456 50.2843 68.7684 52.6821C69.3815 56.1588 73.6899 58.8603 80.3535 63.0008L80.4945 63.0996L80.5933 62.9585ZM82.5917 43.4458C86.3082 42.7905 89.6929 45.1604 90.3482 48.877C91.1304 53.3128 87.7095 57.7481 81.0653 66.3365C71.9055 60.6583 67.174 57.6606 66.3707 53.1048C65.7154 49.3883 68.0853 46.0037 71.8018 45.3484C73.8399 44.989 76.0471 45.5887 77.6407 46.9147C78.6847 45.1236 80.5536 43.8052 82.5917 43.4458Z" fill="#FFFFB1"/>
</g>
<path d="M72.5433 37.32V49.38C74.1333 47.01 76.3383 45.825 79.1583 45.825C82.6083 45.825 85.2333 46.95 87.0333 49.2C88.8333 51.42 89.7333 54.27 89.7333 57.75C89.7333 61.2 88.7583 64.05 86.8083 66.3C84.8883 68.55 82.1883 69.675 78.7083 69.675C76.0383 69.675 73.9833 68.61 72.5433 66.48V69H65.7933V36.735C64.1433 37.155 62.8833 37.89 62.0133 38.94L60.7983 37.545C61.6683 36.645 62.7633 35.925 64.0833 35.385C65.4333 34.845 66.7533 34.575 68.0433 34.575C69.3633 34.575 70.4433 34.845 71.2833 35.385C72.1233 35.895 72.5433 36.54 72.5433 37.32ZM81.4983 64.59C82.3383 62.91 82.7583 60.63 82.7583 57.75C82.7583 54.87 82.3383 52.59 81.4983 50.91C80.6583 49.23 79.3683 48.39 77.6283 48.39C75.9183 48.39 74.5983 49.245 73.6683 50.955C72.7683 52.635 72.3183 54.9 72.3183 57.75C72.3183 60.6 72.7683 62.88 73.6683 64.59C74.5983 66.27 75.9183 67.11 77.6283 67.11C79.3683 67.11 80.6583 66.27 81.4983 64.59ZM104.989 58.605C106.939 58.425 108.439 57.69 109.489 56.4C110.569 55.08 111.109 53.76 111.109 52.44C111.109 51.09 110.809 50.055 110.209 49.335C109.639 48.615 108.754 48.255 107.554 48.255C106.384 48.255 105.259 49.095 104.179 50.775C103.099 52.455 102.559 54.705 102.559 57.525C102.559 60.345 103.069 62.61 104.089 64.32C105.109 66.03 106.564 66.885 108.454 66.885C111.334 66.885 113.779 65.76 115.789 63.51L117.049 64.32C116.029 65.94 114.679 67.245 112.999 68.235C111.319 69.195 109.429 69.675 107.329 69.675C103.759 69.675 100.909 68.505 98.7787 66.165C96.6487 63.795 95.5837 60.945 95.5837 57.615C95.5837 54.285 96.7087 51.495 98.9587 49.245C101.239 46.965 104.389 45.825 108.409 45.825C111.049 45.825 113.119 46.44 114.619 47.67C116.119 48.9 116.869 50.46 116.869 52.35C116.869 54.24 116.029 55.995 114.349 57.615C112.699 59.205 110.509 60 107.779 60C106.849 60 105.949 59.895 105.079 59.685L104.989 58.605ZM121.264 48.975V47.13H124.954V42.585C124.954 40.215 125.629 38.295 126.979 36.825C128.329 35.325 130.504 34.575 133.504 34.575C134.974 34.575 136.369 34.845 137.689 35.385C139.039 35.925 140.149 36.645 141.019 37.545L139.804 38.94C138.514 37.83 137.074 37.275 135.484 37.275C132.964 37.275 131.704 38.925 131.704 42.225V47.13H136.789V48.975H131.704V74.94H124.954V48.975H121.264ZM156.267 45.825C157.167 45.825 157.617 46.68 157.617 48.39V64.005C157.617 64.815 157.812 65.46 158.202 65.94C158.592 66.39 159.192 66.615 160.002 66.615C160.812 66.615 161.742 66.18 162.792 65.31L163.602 66.39C161.202 68.58 158.802 69.675 156.402 69.675C152.712 69.675 150.867 67.47 150.867 63.06V50.415C149.457 50.985 147.747 51.375 145.737 51.585C145.497 54.345 144.702 57.105 143.352 59.865L141.507 59.325C142.347 57.195 142.797 54.66 142.857 51.72C141.717 51.72 140.787 51.39 140.067 50.73C139.377 50.07 139.032 49.26 139.032 48.3C139.032 47.31 139.362 46.485 140.022 45.825C140.712 45.135 141.537 44.79 142.497 44.79C143.487 44.79 144.312 45.135 144.972 45.825C145.632 46.515 145.962 47.4 145.962 48.48H146.817C149.187 48.48 151.707 47.82 154.377 46.5C155.247 46.05 155.877 45.825 156.267 45.825ZM169.638 41.415C168.948 40.695 168.603 39.84 168.603 38.85C168.603 37.86 168.948 37.02 169.638 36.33C170.358 35.61 171.213 35.25 172.203 35.25C173.193 35.25 174.033 35.61 174.723 36.33C175.443 37.02 175.803 37.86 175.803 38.85C175.803 39.84 175.443 40.695 174.723 41.415C174.033 42.105 173.193 42.45 172.203 42.45C171.213 42.45 170.358 42.105 169.638 41.415ZM171.348 45.825C174.168 45.825 175.578 47.04 175.578 49.47V64.005C175.578 64.815 175.773 65.46 176.163 65.94C176.553 66.39 177.153 66.615 177.963 66.615C178.773 66.615 179.703 66.18 180.753 65.31L181.563 66.39C179.163 68.58 176.763 69.675 174.363 69.675C170.673 69.675 168.828 67.47 168.828 63.06V47.985C167.178 48.405 165.918 49.14 165.048 50.19L163.833 48.795C164.703 47.895 165.798 47.175 167.118 46.635C168.468 46.095 169.878 45.825 171.348 45.825ZM193.011 58.605C194.961 58.425 196.461 57.69 197.511 56.4C198.591 55.08 199.131 53.76 199.131 52.44C199.131 51.09 198.831 50.055 198.231 49.335C197.661 48.615 196.776 48.255 195.576 48.255C194.406 48.255 193.281 49.095 192.201 50.775C191.121 52.455 190.581 54.705 190.581 57.525C190.581 60.345 191.091 62.61 192.111 64.32C193.131 66.03 194.586 66.885 196.476 66.885C199.356 66.885 201.801 65.76 203.811 63.51L205.071 64.32C204.051 65.94 202.701 67.245 201.021 68.235C199.341 69.195 197.451 69.675 195.351 69.675C191.781 69.675 188.931 68.505 186.801 66.165C184.671 63.795 183.606 60.945 183.606 57.615C183.606 54.285 184.731 51.495 186.981 49.245C189.261 46.965 192.411 45.825 196.431 45.825C199.071 45.825 201.141 46.44 202.641 47.67C204.141 48.9 204.891 50.46 204.891 52.35C204.891 54.24 204.051 55.995 202.371 57.615C200.721 59.205 198.531 60 195.801 60C194.871 60 193.971 59.895 193.101 59.685L193.011 58.605ZM213.112 46.5C215.572 46.5 217.792 47.25 219.772 48.75C220.912 47.67 222.082 46.92 223.282 46.5C224.482 46.05 226.012 45.825 227.872 45.825C229.762 45.825 231.292 46.425 232.462 47.625C233.662 48.795 234.262 50.4 234.262 52.44V64.005C234.262 64.815 234.457 65.46 234.847 65.94C235.237 66.39 235.837 66.615 236.647 66.615C237.457 66.615 238.387 66.18 239.437 65.31L240.247 66.39C237.847 68.58 235.447 69.675 233.047 69.675C229.357 69.675 227.512 67.47 227.512 63.06V51.495C227.512 50.565 227.227 49.845 226.657 49.335C226.087 48.825 225.292 48.57 224.272 48.57C223.282 48.57 222.292 48.975 221.302 49.785C220.342 50.595 219.862 51.645 219.862 52.935V69H213.112V48.3C211.762 48.3 210.562 48.525 209.512 48.975L208.882 47.31C210.172 46.77 211.582 46.5 213.112 46.5ZM266.213 37.32V64.005C266.213 64.815 266.408 65.46 266.798 65.94C267.188 66.39 267.743 66.615 268.463 66.615C269.213 66.615 270.113 66.18 271.163 65.31L272.198 66.39C269.798 68.58 267.398 69.675 264.998 69.675C262.148 69.675 260.393 68.34 259.733 65.67C258.173 68.34 255.878 69.675 252.848 69.675C249.398 69.675 246.773 68.565 244.973 66.345C243.173 64.095 242.273 61.245 242.273 57.795C242.273 54.315 243.233 51.45 245.153 49.2C247.103 46.95 249.818 45.825 253.298 45.825C255.968 45.825 258.023 46.89 259.463 49.02V36.735C257.813 37.155 256.553 37.89 255.683 38.94L254.468 37.545C255.338 36.645 256.433 35.925 257.753 35.385C259.103 34.845 260.423 34.575 261.713 34.575C263.033 34.575 264.113 34.845 264.953 35.385C265.793 35.895 266.213 36.54 266.213 37.32ZM250.508 50.91C249.668 52.59 249.248 54.87 249.248 57.75C249.248 60.63 249.668 62.91 250.508 64.59C251.348 66.27 252.623 67.11 254.333 67.11C256.073 67.11 257.393 66.27 258.293 64.59C259.223 62.88 259.688 60.6 259.688 57.75C259.688 54.9 259.223 52.635 258.293 50.955C257.393 49.245 256.073 48.39 254.333 48.39C252.623 48.39 251.348 49.23 250.508 50.91ZM293.301 69H274.671V67.2L288.531 48.3H284.796C282.816 48.3 281.451 48.495 280.701 48.885C279.981 49.275 279.486 50.145 279.216 51.495L278.316 55.95H276.561L275.346 48.39C275.346 47.79 275.481 47.355 275.751 47.085C276.021 46.785 276.306 46.62 276.606 46.59C276.936 46.53 277.431 46.5 278.091 46.5H295.821V48.3L282.276 67.2H286.596C288.576 67.2 289.926 67.005 290.646 66.615C291.396 66.225 291.906 65.355 292.176 64.005L293.076 59.55H294.831L296.046 67.11C296.046 67.71 295.911 68.16 295.641 68.46C295.371 68.73 295.071 68.895 294.741 68.955C294.441 68.985 293.961 69 293.301 69Z" fill="black"/>
<defs>
<filter id="filter0_d" x="128.52" y="5.07538" width="39.9712" height="37.7987" filterUnits="userSpaceOnUse" color-interpolation-filters="sRGB">
<feFlood flood-opacity="0" result="BackgroundImageFix"/>
<feColorMatrix in="SourceAlpha" type="matrix" values="0 0 0 0 0 0 0 0 0 0 0 0 0 0 0 0 0 0 127 0"/>
<feOffset dy="4"/>
<feGaussianBlur stdDeviation="2"/>
<feColorMatrix type="matrix" values="0 0 0 0 0 0 0 0 0 0 0 0 0 0 0 0 0 0 0.25 0"/>
<feBlend mode="normal" in2="BackgroundImageFix" result="effect1_dropShadow"/>
<feBlend mode="normal" in="SourceGraphic" in2="effect1_dropShadow" result="shape"/>
</filter>
<filter id="filter1_d" x="113.067" y="66.1952" width="38.0999" height="35.6653" filterUnits="userSpaceOnUse" color-interpolation-filters="sRGB">
<feFlood flood-opacity="0" result="BackgroundImageFix"/>
<feColorMatrix in="SourceAlpha" type="matrix" values="0 0 0 0 0 0 0 0 0 0 0 0 0 0 0 0 0 0 127 0"/>
<feOffset dy="4"/>
<feGaussianBlur stdDeviation="2"/>
<feColorMatrix type="matrix" values="0 0 0 0 0 0 0 0 0 0 0 0 0 0 0 0 0 0 0.25 0"/>
<feBlend mode="normal" in2="BackgroundImageFix" result="effect1_dropShadow"/>
<feBlend mode="normal" in="SourceGraphic" in2="effect1_dropShadow" result="shape"/>
</filter>
<filter id="filter2_d" x="291.853" y="52.7587" width="41.8465" height="41.8465" filterUnits="userSpaceOnUse" color-interpolation-filters="sRGB">
<feFlood flood-opacity="0" result="BackgroundImageFix"/>
<feColorMatrix in="SourceAlpha" type="matrix" values="0 0 0 0 0 0 0 0 0 0 0 0 0 0 0 0 0 0 127 0"/>
<feOffset dy="4"/>
<feGaussianBlur stdDeviation="2"/>
<feColorMatrix type="matrix" values="0 0 0 0 0 0 0 0 0 0 0 0 0 0 0 0 0 0 0.25 0"/>
<feBlend mode="normal" in2="BackgroundImageFix" result="effect1_dropShadow"/>
<feBlend mode="normal" in="SourceGraphic" in2="effect1_dropShadow" result="shape"/>
</filter>
<filter id="filter3_d" x="63.9991" y="63.5092" width="64.4108" height="64.4108" filterUnits="userSpaceOnUse" color-interpolation-filters="sRGB">
<feFlood flood-opacity="0" result="BackgroundImageFix"/>
<feColorMatrix in="SourceAlpha" type="matrix" values="0 0 0 0 0 0 0 0 0 0 0 0 0 0 0 0 0 0 127 0"/>
<feOffset dy="4"/>
<feGaussianBlur stdDeviation="2"/>
<feColorMatrix type="matrix" values="0 0 0 0 0 0 0 0 0 0 0 0 0 0 0 0 0 0 0.25 0"/>
<feBlend mode="normal" in2="BackgroundImageFix" result="effect1_dropShadow"/>
<feBlend mode="normal" in="SourceGraphic" in2="effect1_dropShadow" result="shape"/>
</filter>
<filter id="filter4_d" x="247.749" y="64.9779" width="38.0999" height="35.6653" filterUnits="userSpaceOnUse" color-interpolation-filters="sRGB">
<feFlood flood-opacity="0" result="BackgroundImageFix"/>
<feColorMatrix in="SourceAlpha" type="matrix" values="0 0 0 0 0 0 0 0 0 0 0 0 0 0 0 0 0 0 127 0"/>
<feOffset dy="4"/>
<feGaussianBlur stdDeviation="2"/>
<feColorMatrix type="matrix" values="0 0 0 0 0 0 0 0 0 0 0 0 0 0 0 0 0 0 0.25 0"/>
<feBlend mode="normal" in2="BackgroundImageFix" result="effect1_dropShadow"/>
<feBlend mode="normal" in="SourceGraphic" in2="effect1_dropShadow" result="shape"/>
</filter>
<filter id="filter5_d" x="33.5648" y="62.4977" width="41.8465" height="41.8465" filterUnits="userSpaceOnUse" color-interpolation-filters="sRGB">
<feFlood flood-opacity="0" result="BackgroundImageFix"/>
<feColorMatrix in="SourceAlpha" type="matrix" values="0 0 0 0 0 0 0 0 0 0 0 0 0 0 0 0 0 0 127 0"/>
<feOffset dy="4"/>
<feGaussianBlur stdDeviation="2"/>
<feColorMatrix type="matrix" values="0 0 0 0 0 0 0 0 0 0 0 0 0 0 0 0 0 0 0.25 0"/>
<feBlend mode="normal" in2="BackgroundImageFix" result="effect1_dropShadow"/>
<feBlend mode="normal" in="SourceGraphic" in2="effect1_dropShadow" result="shape"/>
</filter>
<filter id="filter6_d" x="287.55" y="11.1622" width="64.4108" height="64.4108" filterUnits="userSpaceOnUse" color-interpolation-filters="sRGB">
<feFlood flood-opacity="0" result="BackgroundImageFix"/>
<feColorMatrix in="SourceAlpha" type="matrix" values="0 0 0 0 0 0 0 0 0 0 0 0 0 0 0 0 0 0 127 0"/>
<feOffset dy="4"/>
<feGaussianBlur stdDeviation="2"/>
<feColorMatrix type="matrix" values="0 0 0 0 0 0 0 0 0 0 0 0 0 0 0 0 0 0 0.25 0"/>
<feBlend mode="normal" in2="BackgroundImageFix" result="effect1_dropShadow"/>
<feBlend mode="normal" in="SourceGraphic" in2="effect1_dropShadow" result="shape"/>
</filter>
<filter id="filter7_d" x="269.535" y="69.3966" width="56.6948" height="56.6948" filterUnits="userSpaceOnUse" color-interpolation-filters="sRGB">
<feFlood flood-opacity="0" result="BackgroundImageFix"/>
<feColorMatrix in="SourceAlpha" type="matrix" values="0 0 0 0 0 0 0 0 0 0 0 0 0 0 0 0 0 0 127 0"/>
<feOffset dy="4"/>
<feGaussianBlur stdDeviation="2"/>
<feColorMatrix type="matrix" values="0 0 0 0 0 0 0 0 0 0 0 0 0 0 0 0 0 0 0.25 0"/>
<feBlend mode="normal" in2="BackgroundImageFix" result="effect1_dropShadow"/>
<feBlend mode="normal" in="SourceGraphic" in2="effect1_dropShadow" result="shape"/>
</filter>
<filter id="filter8_d" x="166.464" y="24.7592" width="37.2169" height="37.2169" filterUnits="userSpaceOnUse" color-interpolation-filters="sRGB">
<feFlood flood-opacity="0" result="BackgroundImageFix"/>
<feColorMatrix in="SourceAlpha" type="matrix" values="0 0 0 0 0 0 0 0 0 0 0 0 0 0 0 0 0 0 127 0"/>
<feOffset dy="4"/>
<feGaussianBlur stdDeviation="2"/>
<feColorMatrix type="matrix" values="0 0 0 0 0 0 0 0 0 0 0 0 0 0 0 0 0 0 0.25 0"/>
<feBlend mode="normal" in2="BackgroundImageFix" result="effect1_dropShadow"/>
<feBlend mode="normal" in="SourceGraphic" in2="effect1_dropShadow" result="shape"/>
</filter>
<filter id="filter9_d" x="148.447" y="60.0531" width="39.9712" height="37.7987" filterUnits="userSpaceOnUse" color-interpolation-filters="sRGB">
<feFlood flood-opacity="0" result="BackgroundImageFix"/>
<feColorMatrix in="SourceAlpha" type="matrix" values="0 0 0 0 0 0 0 0 0 0 0 0 0 0 0 0 0 0 127 0"/>
<feOffset dy="4"/>
<feGaussianBlur stdDeviation="2"/>
<feColorMatrix type="matrix" values="0 0 0 0 0 0 0 0 0 0 0 0 0 0 0 0 0 0 0.25 0"/>
<feBlend mode="normal" in2="BackgroundImageFix" result="effect1_dropShadow"/>
<feBlend mode="normal" in="SourceGraphic" in2="effect1_dropShadow" result="shape"/>
</filter>
<filter id="filter10_d" x="64.1663" y="19.7292" width="38.0999" height="35.6653" filterUnits="userSpaceOnUse" color-interpolation-filters="sRGB">
<feFlood flood-opacity="0" result="BackgroundImageFix"/>
<feColorMatrix in="SourceAlpha" type="matrix" values="0 0 0 0 0 0 0 0 0 0 0 0 0 0 0 0 0 0 127 0"/>
<feOffset dy="4"/>
<feGaussianBlur stdDeviation="2"/>
<feColorMatrix type="matrix" values="0 0 0 0 0 0 0 0 0 0 0 0 0 0 0 0 0 0 0.25 0"/>
<feBlend mode="normal" in2="BackgroundImageFix" result="effect1_dropShadow"/>
<feBlend mode="normal" in="SourceGraphic" in2="effect1_dropShadow" result="shape"/>
</filter>
<filter id="filter11_d" x="256.344" y="22.1186" width="41.8465" height="41.8465" filterUnits="userSpaceOnUse" color-interpolation-filters="sRGB">
<feFlood flood-opacity="0" result="BackgroundImageFix"/>
<feColorMatrix in="SourceAlpha" type="matrix" values="0 0 0 0 0 0 0 0 0 0 0 0 0 0 0 0 0 0 127 0"/>
<feOffset dy="4"/>
<feGaussianBlur stdDeviation="2"/>
<feColorMatrix type="matrix" values="0 0 0 0 0 0 0 0 0 0 0 0 0 0 0 0 0 0 0.25 0"/>
<feBlend mode="normal" in2="BackgroundImageFix" result="effect1_dropShadow"/>
<feBlend mode="normal" in="SourceGraphic" in2="effect1_dropShadow" result="shape"/>
</filter>
<filter id="filter12_d" x="15.0984" y="0" width="64.4108" height="64.4108" filterUnits="userSpaceOnUse" color-interpolation-filters="sRGB">
<feFlood flood-opacity="0" result="BackgroundImageFix"/>
<feColorMatrix in="SourceAlpha" type="matrix" values="0 0 0 0 0 0 0 0 0 0 0 0 0 0 0 0 0 0 127 0"/>
<feOffset dy="4"/>
<feGaussianBlur stdDeviation="2"/>
<feColorMatrix type="matrix" values="0 0 0 0 0 0 0 0 0 0 0 0 0 0 0 0 0 0 0.25 0"/>
<feBlend mode="normal" in2="BackgroundImageFix" result="effect1_dropShadow"/>
<feBlend mode="normal" in="SourceGraphic" in2="effect1_dropShadow" result="shape"/>
</filter>
<filter id="filter13_d" x="194.258" y="2.64062" width="60.7536" height="60.7536" filterUnits="userSpaceOnUse" color-interpolation-filters="sRGB">
<feFlood flood-opacity="0" result="BackgroundImageFix"/>
<feColorMatrix in="SourceAlpha" type="matrix" values="0 0 0 0 0 0 0 0 0 0 0 0 0 0 0 0 0 0 127 0"/>
<feOffset dy="4"/>
<feGaussianBlur stdDeviation="2"/>
<feColorMatrix type="matrix" values="0 0 0 0 0 0 0 0 0 0 0 0 0 0 0 0 0 0 0.25 0"/>
<feBlend mode="normal" in2="BackgroundImageFix" result="effect1_dropShadow"/>
<feBlend mode="normal" in="SourceGraphic" in2="effect1_dropShadow" result="shape"/>
</filter>
<filter id="filter14_d" x="98.0855" y="8.72748" width="37.2169" height="37.2169" filterUnits="userSpaceOnUse" color-interpolation-filters="sRGB">
<feFlood flood-opacity="0" result="BackgroundImageFix"/>
<feColorMatrix in="SourceAlpha" type="matrix" values="0 0 0 0 0 0 0 0 0 0 0 0 0 0 0 0 0 0 127 0"/>
<feOffset dy="4"/>
<feGaussianBlur stdDeviation="2"/>
<feColorMatrix type="matrix" values="0 0 0 0 0 0 0 0 0 0 0 0 0 0 0 0 0 0 0.25 0"/>
<feBlend mode="normal" in2="BackgroundImageFix" result="effect1_dropShadow"/>
<feBlend mode="normal" in="SourceGraphic" in2="effect1_dropShadow" result="shape"/>
</filter>
<filter id="filter15_d" x="173.562" y="56.205" width="64.4108" height="64.4108" filterUnits="userSpaceOnUse" color-interpolation-filters="sRGB">
<feFlood flood-opacity="0" result="BackgroundImageFix"/>
<feColorMatrix in="SourceAlpha" type="matrix" values="0 0 0 0 0 0 0 0 0 0 0 0 0 0 0 0 0 0 127 0"/>
<feOffset dy="4"/>
<feGaussianBlur stdDeviation="2"/>
<feColorMatrix type="matrix" values="0 0 0 0 0 0 0 0 0 0 0 0 0 0 0 0 0 0 0.25 0"/>
<feBlend mode="normal" in2="BackgroundImageFix" result="effect1_dropShadow"/>
<feBlend mode="normal" in="SourceGraphic" in2="effect1_dropShadow" result="shape"/>
</filter>
<filter id="filter16_d" x="280.892" y="9.94485" width="64.4108" height="64.4108" filterUnits="userSpaceOnUse" color-interpolation-filters="sRGB">
<feFlood flood-opacity="0" result="BackgroundImageFix"/>
<feColorMatrix in="SourceAlpha" type="matrix" values="0 0 0 0 0 0 0 0 0 0 0 0 0 0 0 0 0 0 127 0"/>
<feOffset dy="4"/>
<feGaussianBlur stdDeviation="2"/>
<feColorMatrix type="matrix" values="0 0 0 0 0 0 0 0 0 0 0 0 0 0 0 0 0 0 0.25 0"/>
<feBlend mode="normal" in2="BackgroundImageFix" result="effect1_dropShadow"/>
<feBlend mode="normal" in="SourceGraphic" in2="effect1_dropShadow" result="shape"/>
</filter>
<filter id="filter17_d" x="105.39" y="12.5855" width="60.7536" height="60.7536" filterUnits="userSpaceOnUse" color-interpolation-filters="sRGB">
<feFlood flood-opacity="0" result="BackgroundImageFix"/>
<feColorMatrix in="SourceAlpha" type="matrix" values="0 0 0 0 0 0 0 0 0 0 0 0 0 0 0 0 0 0 127 0"/>
<feOffset dy="4"/>
<feGaussianBlur stdDeviation="2"/>
<feColorMatrix type="matrix" values="0 0 0 0 0 0 0 0 0 0 0 0 0 0 0 0 0 0 0.25 0"/>
<feBlend mode="normal" in2="BackgroundImageFix" result="effect1_dropShadow"/>
<feBlend mode="normal" in="SourceGraphic" in2="effect1_dropShadow" result="shape"/>
</filter>
<filter id="filter18_d" x="225.099" y="18.6723" width="37.2169" height="37.2169" filterUnits="userSpaceOnUse" color-interpolation-filters="sRGB">
<feFlood flood-opacity="0" result="BackgroundImageFix"/>
<feColorMatrix in="SourceAlpha" type="matrix" values="0 0 0 0 0 0 0 0 0 0 0 0 0 0 0 0 0 0 127 0"/>
<feOffset dy="4"/>
<feGaussianBlur stdDeviation="2"/>
<feColorMatrix type="matrix" values="0 0 0 0 0 0 0 0 0 0 0 0 0 0 0 0 0 0 0.25 0"/>
<feBlend mode="normal" in2="BackgroundImageFix" result="effect1_dropShadow"/>
<feBlend mode="normal" in="SourceGraphic" in2="effect1_dropShadow" result="shape"/>
</filter>
<filter id="filter19_d" x="122.428" y="66.1498" width="64.4108" height="64.4108" filterUnits="userSpaceOnUse" color-interpolation-filters="sRGB">
<feFlood flood-opacity="0" result="BackgroundImageFix"/>
<feColorMatrix in="SourceAlpha" type="matrix" values="0 0 0 0 0 0 0 0 0 0 0 0 0 0 0 0 0 0 127 0"/>
<feOffset dy="4"/>
<feGaussianBlur stdDeviation="2"/>
<feColorMatrix type="matrix" values="0 0 0 0 0 0 0 0 0 0 0 0 0 0 0 0 0 0 0.25 0"/>
<feBlend mode="normal" in2="BackgroundImageFix" result="effect1_dropShadow"/>
<feBlend mode="normal" in="SourceGraphic" in2="effect1_dropShadow" result="shape"/>
</filter>
<filter id="filter20_d" x="221.04" y="57.4223" width="39.6522" height="39.6522" filterUnits="userSpaceOnUse" color-interpolation-filters="sRGB">
<feFlood flood-opacity="0" result="BackgroundImageFix"/>
<feColorMatrix in="SourceAlpha" type="matrix" values="0 0 0 0 0 0 0 0 0 0 0 0 0 0 0 0 0 0 127 0"/>
<feOffset dy="4"/>
<feGaussianBlur stdDeviation="2"/>
<feColorMatrix type="matrix" values="0 0 0 0 0 0 0 0 0 0 0 0 0 0 0 0 0 0 0.25 0"/>
<feBlend mode="normal" in2="BackgroundImageFix" result="effect1_dropShadow"/>
<feBlend mode="normal" in="SourceGraphic" in2="effect1_dropShadow" result="shape"/>
</filter>
<filter id="filter21_d" x="183.502" y="24.5533" width="64.4108" height="64.4108" filterUnits="userSpaceOnUse" color-interpolation-filters="sRGB">
<feFlood flood-opacity="0" result="BackgroundImageFix"/>
<feColorMatrix in="SourceAlpha" type="matrix" values="0 0 0 0 0 0 0 0 0 0 0 0 0 0 0 0 0 0 127 0"/>
<feOffset dy="4"/>
<feGaussianBlur stdDeviation="2"/>
<feColorMatrix type="matrix" values="0 0 0 0 0 0 0 0 0 0 0 0 0 0 0 0 0 0 0.25 0"/>
<feBlend mode="normal" in2="BackgroundImageFix" result="effect1_dropShadow"/>
<feBlend mode="normal" in="SourceGraphic" in2="effect1_dropShadow" result="shape"/>
</filter>
<filter id="filter22_d" x="8" y="27.194" width="60.7536" height="60.7536" filterUnits="userSpaceOnUse" color-interpolation-filters="sRGB">
<feFlood flood-opacity="0" result="BackgroundImageFix"/>
<feColorMatrix in="SourceAlpha" type="matrix" values="0 0 0 0 0 0 0 0 0 0 0 0 0 0 0 0 0 0 127 0"/>
<feOffset dy="4"/>
<feGaussianBlur stdDeviation="2"/>
<feColorMatrix type="matrix" values="0 0 0 0 0 0 0 0 0 0 0 0 0 0 0 0 0 0 0.25 0"/>
<feBlend mode="normal" in2="BackgroundImageFix" result="effect1_dropShadow"/>
<feBlend mode="normal" in="SourceGraphic" in2="effect1_dropShadow" result="shape"/>
</filter>
<filter id="filter23_d" x="127.709" y="33.2808" width="37.2169" height="37.2169" filterUnits="userSpaceOnUse" color-interpolation-filters="sRGB">
<feFlood flood-opacity="0" result="BackgroundImageFix"/>
<feColorMatrix in="SourceAlpha" type="matrix" values="0 0 0 0 0 0 0 0 0 0 0 0 0 0 0 0 0 0 127 0"/>
<feOffset dy="4"/>
<feGaussianBlur stdDeviation="2"/>
<feColorMatrix type="matrix" values="0 0 0 0 0 0 0 0 0 0 0 0 0 0 0 0 0 0 0.25 0"/>
<feBlend mode="normal" in2="BackgroundImageFix" result="effect1_dropShadow"/>
<feBlend mode="normal" in="SourceGraphic" in2="effect1_dropShadow" result="shape"/>
</filter>
<filter id="filter24_d" x="56.6949" y="40.3791" width="41.8465" height="41.8465" filterUnits="userSpaceOnUse" color-interpolation-filters="sRGB">
<feFlood flood-opacity="0" result="BackgroundImageFix"/>
<feColorMatrix in="SourceAlpha" type="matrix" values="0 0 0 0 0 0 0 0 0 0 0 0 0 0 0 0 0 0 127 0"/>
<feOffset dy="4"/>
<feGaussianBlur stdDeviation="2"/>
<feColorMatrix type="matrix" values="0 0 0 0 0 0 0 0 0 0 0 0 0 0 0 0 0 0 0.25 0"/>
<feBlend mode="normal" in2="BackgroundImageFix" result="effect1_dropShadow"/>
<feBlend mode="normal" in="SourceGraphic" in2="effect1_dropShadow" result="shape"/>
</filter>
<clipPath id="clip0">
<rect width="29.2169" height="29.2169" fill="white" transform="translate(300.927 52.7587) rotate(10)"/>
</clipPath>
<clipPath id="clip1">
<rect width="48.6949" height="48.6949" fill="white" transform="translate(67.9991 71.965) rotate(-10)"/>
</clipPath>
<clipPath id="clip2">
<rect width="29.2169" height="29.2169" fill="white" transform="translate(42.6383 62.4977) rotate(10)"/>
</clipPath>
<clipPath id="clip3">
<rect width="29.2169" height="29.2169" fill="white" transform="translate(170.464 24.7592)"/>
</clipPath>
<clipPath id="clip4">
<rect width="29.2169" height="29.2169" fill="white" transform="translate(265.417 22.1186) rotate(10)"/>
</clipPath>
<clipPath id="clip5">
<rect width="48.6949" height="48.6949" fill="white" transform="translate(19.0984 8.45578) rotate(-10)"/>
</clipPath>
<clipPath id="clip6">
<rect width="29.2169" height="29.2169" fill="white" transform="translate(102.085 8.72748)"/>
</clipPath>
<clipPath id="clip7">
<rect width="48.6949" height="48.6949" fill="white" transform="translate(284.892 18.4006) rotate(-10)"/>
</clipPath>
<clipPath id="clip8">
<rect width="29.2169" height="29.2169" fill="white" transform="translate(229.099 18.6723)"/>
</clipPath>
<clipPath id="clip9">
<rect width="29.2169" height="29.2169" fill="white" transform="translate(225.04 59.9688) rotate(-5)"/>
</clipPath>
<clipPath id="clip10">
<rect width="48.6949" height="48.6949" fill="white" transform="matrix(-0.984808 -0.173648 -0.173648 0.984808 243.913 33.0091)"/>
</clipPath>
<clipPath id="clip11">
<rect width="29.2169" height="29.2169" fill="white" transform="matrix(-1 0 0 1 160.926 33.2808)"/>
</clipPath>
<clipPath id="clip12">
<rect width="29.2169" height="29.2169" fill="white" transform="translate(60.6949 45.4526) rotate(-10)"/>
</clipPath>
</defs>
</svg>
